<svg xmlns="http://www.w3.org/2000/svg" viewBox="0 0 96.5 101.3"><defs><style>.cls-1{fill:#131515;}.cls-1,.cls-2{stroke:#eaeaea;stroke-miterlimit:10;stroke-width:0.5px;}.cls-2{fill:#19c69e;}</style></defs><title>Asset 2</title><g id="Layer_2" data-name="Layer 2"><g id="content"><g id="Outline"><path class="cls-1" d="M13,52.19l5.34-2.54,3.76,1.56,2,5.57a1.6,1.6,0,0,0,1.51,1.06h7A1.6,1.6,0,0,0,34,56.79l2-5.57,3.76-1.56,5.34,2.54a1.6,1.6,0,0,0,1.82-.31L51.88,47a1.6,1.6,0,0,0,.31-1.82l-2.54-5.34L51.21,36l5.57-2a1.6,1.6,0,0,0,1.06-1.51v-7a1.6,1.6,0,0,0-1.06-1.51l-5.57-2-1.56-3.76L52.19,13a1.6,1.6,0,0,0-.31-1.82L47,6.22a1.6,1.6,0,0,0-1.82-.31L39.79,8.45,36,6.89,34,1.31A1.6,1.6,0,0,0,32.54.25h-7a1.6,1.6,0,0,0-1.51,1.06l-2,5.57L18.31,8.45,13,5.91a1.6,1.6,0,0,0-1.82.31L6.22,11.15A1.6,1.6,0,0,0,5.91,13l2.54,5.34L6.89,22.07l-5.57,2A1.6,1.6,0,0,0,.25,25.56v7A1.6,1.6,0,0,0,1.31,34l5.57,2,1.56,3.76L5.91,45.13A1.6,1.6,0,0,0,6.22,47l4.93,4.93a1.6,1.6,0,0,0,1.82.31Zm-1.3-13-2.1-5.08a1.6,1.6,0,0,0-.94-.89L3.45,31.41V26.69l5.18-1.84a1.6,1.6,0,0,0,.94-.9l2.1-5.07a1.6,1.6,0,0,0,0-1.3l-2.36-5,3.33-3.33,5,2.36a1.6,1.6,0,0,0,1.3,0L24,9.57a1.6,1.6,0,0,0,.89-.94l1.84-5.18h4.71l1.84,5.18a1.6,1.6,0,0,0,.9.94l5.07,2.1a1.6,1.6,0,0,0,1.3,0l5-2.36,3.33,3.33-2.36,5a1.6,1.6,0,0,0,0,1.3L48.53,24a1.6,1.6,0,0,0,.94.89l5.18,1.84v4.71l-5.18,1.84a1.6,1.6,0,0,0-.94.9l-2.1,5.07a1.6,1.6,0,0,0,0,1.3l2.36,5-3.33,3.33-5-2.36a1.6,1.6,0,0,0-1.3,0l-5.08,2.1a1.6,1.6,0,0,0-.89.94l-1.84,5.18H26.69l-1.84-5.18a1.6,1.6,0,0,0-.9-.94l-5.07-2.1a1.6,1.6,0,0,0-1.3,0l-5,2.36L9.28,45.48l2.36-5a1.6,1.6,0,0,0,0-1.3Z"/><path class="cls-2" d="M29,43.45A14.4,14.4,0,1,0,14.65,29,14.4,14.4,0,0,0,29,43.45Zm0-25.6A11.2,11.2,0,1,1,17.85,29,11.2,11.2,0,0,1,29,17.85Z"/><path class="cls-1" d="M60,77.34l-2.1,5.08a1.6,1.6,0,0,0,0,1.3l2.36,5L57,92l-5-2.36a1.6,1.6,0,0,0-1.3,0l-5.07,2.1a1.6,1.6,0,0,0-.9.94l-1.84,5.18H38.18l-1.84-5.18a1.6,1.6,0,0,0-.9-.94l-5.08-2.1a1.6,1.6,0,0,0-1.3,0L24.1,92l-3.33-3.33,2.36-5a1.6,1.6,0,0,0,0-1.3l-2.1-5.08a1.6,1.6,0,0,0-.94-.89l-5.18-1.84V69.89l5.18-1.84a1.6,1.6,0,0,0,.94-.9l2.1-5.08a1.6,1.6,0,0,0,0-1.3l-2.85-6-2.89,1.38,2.54,5.34-1.56,3.76-5.57,2a1.6,1.6,0,0,0-1.06,1.51v7a1.6,1.6,0,0,0,1.06,1.51l5.57,2L19.93,83l-2.54,5.34a1.6,1.6,0,0,0,.31,1.82l4.93,4.93a1.6,1.6,0,0,0,1.82.31l5.34-2.54,3.76,1.56,2,5.57A1.6,1.6,0,0,0,37,101.05h7A1.6,1.6,0,0,0,45.53,100l2-5.57,3.76-1.56,5.34,2.54a1.6,1.6,0,0,0,1.82-.31l4.93-4.93a1.6,1.6,0,0,0,.31-1.82L61.14,83,63,78.57Z"/><path class="cls-1" d="M63.36,54.35l-4.93-4.93a1.6,1.6,0,0,0-1.82-.31l-6,2.85L52,54.84l5-2.36,3.33,3.33-2.36,5a1.6,1.6,0,0,0,0,1.3l1.82,4.38,3-1.22-1.54-3.73,2.54-5.34a1.6,1.6,0,0,0-.31-1.82Z"/><path class="cls-2" d="M40.53,86.65a14.4,14.4,0,1,0-14.4-14.4A14.4,14.4,0,0,0,40.53,86.65Zm0-25.6a11.2,11.2,0,1,1-11.2,11.2A11.2,11.2,0,0,1,40.53,61Z"/><path class="cls-1" d="M95.19,28.86l-5.57-2-1.56-3.76,2.54-5.34a1.6,1.6,0,0,0-.31-1.82L85.35,11a1.6,1.6,0,0,0-1.82-.31l-5.34,2.54-3.76-1.56-2-5.57A1.6,1.6,0,0,0,70.94,5H64a1.6,1.6,0,0,0-1.51,1.06l-2,5.57-4.42,1.83,1.22,3,5.08-2.1a1.6,1.6,0,0,0,.89-.94l1.84-5.18h4.71l1.84,5.18a1.6,1.6,0,0,0,.9.94l5.07,2.1a1.6,1.6,0,0,0,1.3,0l5-2.36,3.33,3.33-2.36,5a1.6,1.6,0,0,0,0,1.3l2.1,5.08a1.6,1.6,0,0,0,.94.89L93,31.49v4.71L87.87,38a1.6,1.6,0,0,0-.94.9L84.83,44a1.6,1.6,0,0,0,0,1.3l2.36,5-4.13,4.13,2.26,2.26,4.93-4.93a1.6,1.6,0,0,0,.31-1.82l-2.54-5.34,1.56-3.76,5.57-2a1.6,1.6,0,0,0,1.06-1.51v-7a1.6,1.6,0,0,0-1.06-1.51Z"/><path class="cls-2" d="M67.45,45a11.16,11.16,0,0,1-10.39-7l-3,1.2a14.4,14.4,0,1,0,6.15-17.87l1.6,2.77A11.2,11.2,0,1,1,67.45,45Z"/><path class="cls-1" d="M85.6,61H80.25v-6.4a4.8,4.8,0,1,0-9.6,0V68.39l-1.07-1.07a5,5,0,0,0-7.06,7.06l8.14,8.14v2.54h-1.6a1.6,1.6,0,0,0-1.6,1.6v14.4h3.2V88.25h19.2v12.8h3.2V86.65a1.6,1.6,0,0,0-1.6-1.6h-1.6V82.51l3.28-3.28A10.65,10.65,0,0,0,85.6,61.05ZM90.87,77l-3.75,3.75a1.6,1.6,0,0,0-.47,1.13V85H73.85v-3.2a1.6,1.6,0,0,0-.47-1.13l-8.61-8.61a1.79,1.79,0,0,1,2.51-2.56l0,0,3.81,3.81a1.6,1.6,0,0,0,2.73-1.13V54.65a1.6,1.6,0,0,1,3.2,0v8a1.6,1.6,0,0,0,1.6,1.6H85.6A7.45,7.45,0,0,1,90.87,77Z"/><path class="cls-1" d="M83.45,91.45h3.2v3.2h-3.2Z"/></g></g></g></svg>