<svg xmlns="http://www.w3.org/2000/svg" viewBox="0 0 96.5 96.5"><defs><style>.cls-1{fill:#131515;}.cls-1,.cls-2{stroke:#eaeaea;stroke-miterlimit:10;stroke-width:0.5px;}.cls-2{fill:#19c69e;}</style></defs><title>Asset 5</title><g id="Layer_2" data-name="Layer 2"><g id="content"><path class="cls-1" d="M87.54,78.7A7.7,7.7,0,0,0,90.06,73v-3.1a7.74,7.74,0,0,0-15.33-1.55H69.64a4.62,4.62,0,0,0-8.72,0H55.84a7.77,7.77,0,0,0-6-6V58.87a6.19,6.19,0,0,0,4.65-6H56a1.55,1.55,0,0,0,1.55-1.55V46.7h3.1v-3.1h-3.1v0a10.64,10.64,0,0,1,3.85-8A20.12,20.12,0,0,0,47.42.27,20.38,20.38,0,0,0,28.12,20,20.08,20.08,0,0,0,35,35.5a11.29,11.29,0,0,1,4,8.11H35.86v3.1H39v4.65a1.55,1.55,0,0,0,1.55,1.55h1.55a6.18,6.18,0,0,0,4.65,6v3.47a7.77,7.77,0,0,0-6,6H35.58a4.62,4.62,0,0,0-8.72,0H21.77A7.74,7.74,0,0,0,6.44,69.93V73A7.7,7.7,0,0,0,9,78.7,14,14,0,0,0,.25,91.61v3.1A1.55,1.55,0,0,0,1.8,96.25H26.57a1.55,1.55,0,0,0,1.55-1.55v-3.1A14,14,0,0,0,19.41,78.7,7.7,7.7,0,0,0,21.93,73V71.48h4.93a4.62,4.62,0,0,0,8.72,0h4.93V73A7.7,7.7,0,0,0,43,78.7a14,14,0,0,0-8.71,12.91v3.1a1.55,1.55,0,0,0,1.55,1.55H60.64a1.55,1.55,0,0,0,1.55-1.55v-3.1A14,14,0,0,0,53.48,78.7,7.7,7.7,0,0,0,56,73V71.48h4.93a4.62,4.62,0,0,0,8.72,0h4.93V73a7.7,7.7,0,0,0,2.51,5.67,14,14,0,0,0-8.71,12.91v3.1a1.55,1.55,0,0,0,1.55,1.55H94.7a1.55,1.55,0,0,0,1.55-1.55v-3.1A14,14,0,0,0,87.54,78.7ZM25,91.61v1.55h-3.1v-3.1h-3.1v3.1H9.54v-3.1H6.44v3.1H3.35V91.61a10.84,10.84,0,0,1,21.68,0ZM9.54,73v-3.1a4.65,4.65,0,1,1,9.29,0V73a4.65,4.65,0,1,1-9.29,0Zm21.68-1.55a1.55,1.55,0,1,1,1.55-1.55A1.55,1.55,0,0,1,31.22,71.48ZM37,33.17a17,17,0,0,1-5.8-13.1A17.25,17.25,0,0,1,47.54,3.36a17,17,0,0,1,11.83,29.9,13.74,13.74,0,0,0-4.93,10.33v0H42A14.38,14.38,0,0,0,37,33.17ZM54.44,46.7v3.1H42.06V46.7ZM45.15,52.9h6.19a3.1,3.1,0,1,1-6.19,0ZM59.09,91.61v1.55H56v-3.1H52.9v3.1H43.6v-3.1h-3.1v3.1h-3.1V91.61a10.84,10.84,0,0,1,21.68,0ZM43.6,73v-3.1a4.65,4.65,0,0,1,9.29,0V73a4.65,4.65,0,0,1-9.29,0Zm21.68-1.55a1.55,1.55,0,1,1,1.55-1.55A1.55,1.55,0,0,1,65.28,71.48ZM77.67,73v-3.1a4.65,4.65,0,0,1,9.29,0V73a4.65,4.65,0,1,1-9.29,0ZM93.15,93.16h-3.1v-3.1H87v3.1H77.67v-3.1h-3.1v3.1h-3.1V91.61a10.84,10.84,0,0,1,21.68,0Z"/><path class="cls-2" d="M45.15,37.41h6.19v3.1H45.15Z"/><path class="cls-2" d="M46.7,28v3.25h3.1V28a7.68,7.68,0,0,0,2.71-1.13l2.38,2.38L57.09,27,54.7,24.64a7.7,7.7,0,0,0,1.13-2.71h3.25v-3.1H55.84a7.7,7.7,0,0,0-1.13-2.71l2.38-2.38L54.9,11.54l-2.38,2.38A7.68,7.68,0,0,0,49.8,12.8V9.54H46.7V12.8A7.68,7.68,0,0,0,44,13.93L41.6,11.54l-2.19,2.19,2.38,2.38a7.69,7.69,0,0,0-1.13,2.71H37.41v3.1h3.25a7.69,7.69,0,0,0,1.13,2.71L39.41,27l2.19,2.19L44,26.83A7.68,7.68,0,0,0,46.7,28Zm1.55-12.23a4.65,4.65,0,1,1-4.65,4.65A4.65,4.65,0,0,1,48.25,15.74Z"/></g></g></svg>