<svg xmlns="http://www.w3.org/2000/svg" viewBox="0 0 96.6 81.76"><defs><style>.cls-1{fill:#131515;}.cls-1,.cls-2{stroke:#eaeaea;stroke-miterlimit:10;stroke-width:0.6px;}.cls-2{fill:#19c69e;}</style></defs><title>Asset 4</title><g id="Layer_2" data-name="Layer 2"><g id="content"><path class="cls-1" d="M57.59,69.89H50.32a1.87,1.87,0,1,0,0,3.75h7.27a2,2,0,1,1,0,4.07H38a9.85,9.85,0,0,1-7.59-3.56l-4.68-5.63a13.58,13.58,0,0,0-10.08-4.9V52.55h6.9a13,13,0,0,1,9.08,3.67L41.73,66a1.84,1.84,0,0,1-2.52,2.68l-7.94-7.27a1.87,1.87,0,0,0-2.53,2.76l7.94,7.27a5.59,5.59,0,0,0,7.66-8.14L34.23,53.51A16.74,16.74,0,0,0,22.55,48.8H15.28A4.65,4.65,0,0,0,11,46H2.17A1.87,1.87,0,0,0,.3,47.83V61.54a1.87,1.87,0,0,0,3.75,0V49.7h7a.9.9,0,0,1,.9.9v15a.9.9,0,0,1-.9.9H9.05a1.87,1.87,0,1,0,0,3.75H11a4.65,4.65,0,0,0,4.31-2.91,9.85,9.85,0,0,1,7.54,3.56l4.68,5.63A13.59,13.59,0,0,0,38,81.46H57.59a5.79,5.79,0,0,0,0-11.57Z"/><path class="cls-1" d="M94.43,17.62a1.87,1.87,0,0,0-1.87,1.87V32.06h-7a.9.9,0,0,1-.9-.9v-15a.9.9,0,0,1,.9-.9h1.81a1.87,1.87,0,0,0,0-3.75H85.6a4.65,4.65,0,0,0-4.31,2.91,9.85,9.85,0,0,1-7.54-3.56L69.07,5.21A13.59,13.59,0,0,0,58.59.3H39a5.79,5.79,0,1,0,0,11.57h8a1.87,1.87,0,0,0,0-3.75H39A2,2,0,1,1,39,4H58.59a9.85,9.85,0,0,1,7.59,3.56l4.68,5.63A13.58,13.58,0,0,0,81,18.14V29.22H74A13,13,0,0,1,65,25.55L54.87,15.79a1.84,1.84,0,0,1,2.52-2.68l7.94,7.27a1.87,1.87,0,1,0,2.53-2.76l-7.94-7.27a5.59,5.59,0,0,0-7.66,8.14l10.11,9.76A16.74,16.74,0,0,0,74,33h7.27a4.65,4.65,0,0,0,4.28,2.84h8.83a1.87,1.87,0,0,0,1.87-1.87V19.49A1.87,1.87,0,0,0,94.43,17.62Z"/><path class="cls-1" d="M60.83,64.06a1.89,1.89,0,1,0-1,2.5l0,0A1.88,1.88,0,0,0,60.83,64.06Z"/><path class="cls-1" d="M65.49,60.91a1.88,1.88,0,1,0-.41,2.63l0,0A1.87,1.87,0,0,0,65.49,60.91Z"/><path class="cls-1" d="M55.59,66.17a1.89,1.89,0,1,0-1.5,2.23h.06A1.87,1.87,0,0,0,55.59,66.17Z"/><path class="cls-1" d="M69.41,56.83a1.87,1.87,0,0,0-2.65.14l0,0a1.87,1.87,0,1,0,2.69-.18Z"/><path class="cls-1" d="M74.18,46.67A1.88,1.88,0,1,0,75.42,49v0A1.87,1.87,0,0,0,74.18,46.67Z"/><path class="cls-1" d="M76.58,37v-.07a1.89,1.89,0,1,0,0,.07Z"/><path class="cls-1" d="M74.86,41.06a1.88,1.88,0,0,0-2,1.7v.07a1.87,1.87,0,0,0,1.76,2h.11a1.88,1.88,0,0,0,.16-3.76Z"/><path class="cls-1" d="M73.05,54.56a1.87,1.87,0,1,0-3.26-1.85l0,0a1.88,1.88,0,0,0,1.65,2.78,1.86,1.86,0,0,0,1.64-1"/><path class="cls-1" d="M38.34,16.3a1.87,1.87,0,0,0-2.52-.84h0a1.87,1.87,0,1,0,2.53.83Z"/><path class="cls-1" d="M43.77,14.74a1.87,1.87,0,0,0-2.26-1.38h0a1.87,1.87,0,1,0,2.31,1.37Z"/><path class="cls-1" d="M30.74,18.72a1.87,1.87,0,0,0,2.34,2.93l0,0a1.87,1.87,0,0,0-2.35-2.92"/><path class="cls-1" d="M23.39,32.34a1.87,1.87,0,0,0-2.3,1.32l0,.07a1.87,1.87,0,1,0,2.32-1.39Z"/><path class="cls-1" d="M22.19,37.85a1.88,1.88,0,0,0-2,1.76v.07A1.87,1.87,0,0,0,22,41.61h.06a1.88,1.88,0,0,0,.11-3.76Z"/><path class="cls-1" d="M25.75,27.22a1.87,1.87,0,0,0-2.53.79l0,.06a1.87,1.87,0,1,0,2.56-.85Z"/><path class="cls-1" d="M29.13,22.71a1.87,1.87,0,0,0-2.64.24l0,0a1.87,1.87,0,1,0,2.68-.29Z"/><path class="cls-1" d="M24.31,45a1.87,1.87,0,0,0-3.69.66v0a1.86,1.86,0,0,0,1.84,1.54A1.88,1.88,0,0,0,24.31,45Z"/><path class="cls-2" d="M54.74,30.78a8.68,8.68,0,0,0-6.31,2.7A8.71,8.71,0,1,0,36.54,46.17l0,0,10.68,8.46a1.87,1.87,0,0,0,2.33,0l11.14-8.87.16-.14a8.71,8.71,0,0,0-6.15-14.87ZM58.3,42.93,48.42,50.8l-9.5-7.52a5,5,0,1,1,7.77-5.69,1.87,1.87,0,0,0,3.46,0,5,5,0,1,1,8.15,5.34Z"/><circle class="cls-1" cx="2.17" cy="68.4" r="1.87"/><circle class="cls-1" cx="94.42" cy="13.36" r="1.87"/></g></g></svg>